# xmcd
#
# Track frame offsets:
#	150
#	25296
#	53105
#	79976
#	105605
#	115859
#	143471
#	169744
#	193333
#
# Disc length: 2853 seconds
#
# Revision: 0
# Processed by: cddbd v1.5PL3 Copyright (c) Steve Scherf et al.
# Submitted via: EasyCDDAExtractor 4.6.9.1
#
DISCID=750b2309
DTITLE=Marshall Watson - the time was later than he expected
DYEAR=2004
DGENRE=Techno
TTITLE0=the dangerous empty
TTITLE1=fifty in june
TTITLE2=a boy in september
TTITLE3=heart of mine, beating
TTITLE4=about the time i remembered
TTITLE5=square wheels
TTITLE6=lost at seven
TTITLE7=early on later off
TTITLE8=i could tell you everything
EXTD=
EXTT0=
EXTT1=
EXTT2=
EXTT3=
EXTT4=
EXTT5=
EXTT6=
EXTT7=
EXTT8=
PLAYORDER=
